<svg width="45" height="45" viewBox="0 0 45 45" fill="none" xmlns="http://www.w3.org/2000/svg">
<path d="M22.4999 13.1703L8.01465 20.4616L22.4999 27.7529L36.9852 20.4616L22.4999 13.1703Z" fill="#FCB1E6"/>
<path d="M22.5 27.7298V45.0001L36.9853 37.7087V20.4616L22.5 27.7298Z" fill="#FC7BD6"/>
<path d="M33.3633 22.2789V39.5318L36.9851 37.7087V20.4616L33.3633 22.2789Z" fill="#FC65CF"/>
<path d="M8.01465 20.4616L22.4999 27.7298V45.0001L8.01465 37.7087V20.4616Z" fill="#FC47C7"/>
<path d="M22.5002 38.0683L31.1673 33.7056L22.5002 29.343L13.833 33.7056L22.5002 38.0683Z" fill="#FCB1E6"/>
<path d="M22.5002 29.3568V19.0232L13.833 23.3859V33.7056L22.5002 29.3568Z" fill="#FC7BD6"/>
<path d="M31.1672 33.7056L22.5 29.3568V19.0232L31.1672 23.3859V33.7056Z" fill="#FC47C7"/>
<path d="M22.4999 0L13.8184 4.30647L22.4999 8.76489L31.1815 4.30647L22.4999 0Z" fill="#E0E8FF"/>
<path d="M22.5 8.75047V19.0231L31.1816 14.7167V4.30646L22.5 8.75047Z" fill="#B3C6FF"/>
<path d="M27.5601 6.16042V16.5131L31.1818 14.7166V4.30646L27.5601 6.16042Z" fill="#A3BAFF"/>
<path d="M13.8184 4.30646L22.4999 8.75047V19.0231L13.8184 14.7167V4.30646Z" fill="#96B1FF"/>
</svg>
