<svg width="36" height="36" viewBox="0 0 36 36" fill="none" xmlns="http://www.w3.org/2000/svg">
<path d="M33.5886 9.00003C33.4473 8.75534 33.2428 8.54728 32.9897 8.4011L18.8185 0.219331C18.3122 -0.0730288 17.6884 -0.0730288 17.1821 0.219331L3.01103 8.4011C2.75791 8.54728 2.55337 8.75541 2.41211 9.00003L18.0003 18L33.5886 9.00003Z" fill="#00D7DF"/>
<path d="M18 36C18.2825 36 18.5651 35.9269 18.8182 35.7807L32.9893 27.5989C33.4956 27.3065 33.8074 26.7664 33.8074 26.1818V9.81816C33.8074 9.5258 33.7295 9.24469 33.5881 9L18 18V36Z" fill="#5286FA"/>
<path d="M17.1818 35.7807C17.4349 35.9269 17.7175 36 18 36V18L2.41169 9C2.27043 9.24469 2.19238 9.5258 2.19238 9.81816V26.1818C2.19238 26.7664 2.50429 27.3066 3.01054 27.5989L17.1818 35.7807Z" fill="#424EDE"/>
</svg>
