<svg width="29" height="45" viewBox="0 0 29 45" fill="none" xmlns="http://www.w3.org/2000/svg">
<path d="M14.4999 13.1703L0.0146484 20.4616L14.4999 27.7529L28.9852 20.4616L14.4999 13.1703Z" fill="#FCB1E6"/>
<path d="M14.5 27.7298V45.0001L28.9853 37.7087V20.4616L14.5 27.7298Z" fill="#FC7BD6"/>
<path d="M25.3633 22.2789V39.5318L28.9851 37.7087V20.4616L25.3633 22.2789Z" fill="#FC65CF"/>
<path d="M0.0146484 20.4616L14.4999 27.7298V45.0001L0.0146484 37.7087V20.4616Z" fill="#FC47C7"/>
<path d="M14.5002 38.0683L23.1673 33.7056L14.5002 29.343L5.83301 33.7056L14.5002 38.0683Z" fill="#FCB1E6"/>
<path d="M14.5002 29.3568V19.0232L5.83301 23.3859V33.7056L14.5002 29.3568Z" fill="#FC7BD6"/>
<path d="M23.1672 33.7056L14.5 29.3568V19.0232L23.1672 23.3859V33.7056Z" fill="#FC47C7"/>
<path d="M14.4999 0L5.81836 4.30647L14.4999 8.76489L23.1815 4.30647L14.4999 0Z" fill="#E0E8FF"/>
<path d="M14.5 8.75047V19.0231L23.1816 14.7167V4.30646L14.5 8.75047Z" fill="#B3C6FF"/>
<path d="M19.5601 6.16042V16.5131L23.1818 14.7166V4.30646L19.5601 6.16042Z" fill="#A3BAFF"/>
<path d="M5.81836 4.30646L14.4999 8.75047V19.0231L5.81836 14.7167V4.30646Z" fill="#96B1FF"/>
</svg>
