<svg width="145" height="58" viewBox="0 0 145 58" fill="none" xmlns="http://www.w3.org/2000/svg">
<g clip-path="url(#clip0)">
<path d="M32.8061 40.2351H35.2273C37.2222 40.2351 38.3646 39.1611 38.3646 37.5926C38.3646 35.8877 37.137 34.933 35.142 34.933H31.101V49.8677H27.0088V31.1822H35.5342C36.5211 31.1201 37.5105 31.2555 38.4445 31.5804C39.3785 31.9054 40.2382 32.4133 40.9734 33.0746C41.509 33.6432 41.9252 34.3133 42.1976 35.0453C42.4699 35.7773 42.5929 36.5565 42.5591 37.3368C42.6182 38.604 42.2599 39.8556 41.5392 40.8995C40.8185 41.9435 39.7751 42.7223 38.5692 43.1164L43.0365 49.8166H38.2794L34.2895 43.8495H31.3226L32.8061 40.2351Z" fill="#404041"/>
<path d="M18.9942 47.9753C17.4848 49.3023 15.5477 50.0407 13.5379 50.0553C9.95727 50.0553 7.28029 47.9753 7.28029 44.6849C7.27713 43.5626 7.62346 42.4672 8.27121 41.5507C8.91897 40.6342 9.83601 39.942 10.8951 39.5703C10.0723 38.5042 9.61761 37.2001 9.5992 35.8536C9.60959 35.1437 9.76769 34.4438 10.0634 33.7983C10.3592 33.1528 10.7861 32.576 11.3169 32.1045C11.8478 31.633 12.4711 31.2772 13.147 31.0597C13.8229 30.8422 14.5368 30.7678 15.243 30.8413C15.9065 30.7822 16.575 30.8617 17.2062 31.0745C17.8373 31.2874 18.4173 31.6291 18.9095 32.0779C19.4016 32.5267 19.7952 33.0729 20.0651 33.6817C20.335 34.2906 20.4755 34.9489 20.4776 35.6149C20.4532 36.7419 20.0572 37.8292 19.3511 38.7078C18.645 39.5865 17.6683 40.2073 16.573 40.4738L19.0453 42.963C19.711 41.9166 20.32 40.8353 20.8698 39.7237L23.8878 41.4286C23.1655 42.7989 22.3449 44.1151 21.4325 45.3669L24.1776 48.1117L21.1596 50.2087L18.9942 47.9753ZM16.6923 45.6396L13.1287 42.0253C12.6402 42.2248 12.2196 42.5609 11.9172 42.9933C11.6148 43.4257 11.4434 43.936 11.4236 44.4633C11.4304 44.7896 11.5059 45.1109 11.6454 45.406C11.7848 45.7012 11.9851 45.9635 12.2329 46.176C12.4808 46.3884 12.7707 46.5461 13.0838 46.6388C13.3968 46.7314 13.7259 46.757 14.0495 46.7137C15.0256 46.6605 15.9559 46.2824 16.6923 45.6396ZM16.914 35.8195C16.914 35.3674 16.7344 34.9337 16.4146 34.614C16.0948 34.2943 15.6611 34.1146 15.2089 34.1146C14.9599 34.0981 14.7102 34.1364 14.4776 34.2269C14.245 34.3174 14.0351 34.4578 13.8627 34.6383C13.6903 34.8188 13.5597 35.0349 13.48 35.2715C13.4003 35.508 13.3735 35.7591 13.4015 36.0071C13.4162 36.4474 13.5205 36.8802 13.7081 37.2789C13.8957 37.6775 14.1627 38.0337 14.4928 38.3257C16.0615 37.6778 16.914 36.9959 16.914 35.8195Z" fill="#404041"/>
<path d="M5.83137 17.3898H8.25259C10.2646 17.3898 11.407 16.3157 11.407 14.7472C11.407 13.0423 10.1793 12.0876 8.18438 12.0876H4.10924V27.0223H0V8.33686H8.5254C9.50987 8.27316 10.4971 8.40785 11.4285 8.73293C12.3599 9.05801 13.2166 9.56686 13.9476 10.2293C14.4854 10.797 14.9043 11.4665 15.1795 12.1985C15.4548 12.9305 15.5809 13.7101 15.5503 14.4915C15.6094 15.7586 15.2511 17.0102 14.5304 18.0542C13.8097 19.0981 12.7663 19.8769 11.5604 20.271L16.113 26.92H11.3217L7.33184 20.953H4.365L5.83137 17.3898Z" fill="#404041"/>
<path d="M89.2435 17.3898H91.6647C93.6596 17.3898 94.8191 16.3157 94.8191 14.7472C94.8191 13.0423 93.5914 12.0876 91.5965 12.0876H87.5213V27.0223H83.4121V8.33686H91.9375C92.922 8.27316 93.9092 8.40785 94.8406 8.73293C95.7721 9.05801 96.6287 9.56686 97.3597 10.2293C97.8975 10.797 98.3164 11.4665 98.5916 12.1985C98.8669 12.9305 98.993 13.7101 98.9624 14.4915C99.0215 15.7586 98.6632 17.0102 97.9425 18.0542C97.2218 19.0981 96.1785 19.8769 94.9726 20.271L99.5251 26.92H94.7338L90.7781 21.0041H87.7771L89.2435 17.3898Z" fill="#404041"/>
<path d="M16.9658 8.33687H29.0207V11.9853H21.0239V15.7701H27.0769V19.4186H21.0239V23.3228H29.1571V26.9712H16.9658V8.33687Z" fill="#404041"/>
<path d="M29.9414 24.2604L32.3626 21.3451C33.8691 22.7747 35.8456 23.6052 37.9212 23.6808C39.6263 23.6808 40.6152 23.0159 40.6152 21.9759C40.6152 20.9359 39.9843 20.4074 36.864 19.6061C33.1129 18.6514 30.6916 17.6114 30.6916 13.9118C30.6916 10.5021 33.4027 8.28572 37.2051 8.28572C39.7179 8.24703 42.1658 9.08499 44.1277 10.6555L41.9963 13.4515C40.5891 12.4117 38.9022 11.8178 37.1539 11.7466C35.5852 11.7466 34.7668 12.4627 34.7668 13.4515C34.7668 14.679 35.5511 15.0711 38.7737 15.9065C42.559 16.8613 44.7415 18.157 44.7415 21.4133C44.7415 25.1129 41.9111 27.1928 37.9212 27.1928C34.9915 27.2278 32.1512 26.1841 29.9414 24.2604Z" fill="#404041"/>
<path d="M100.106 17.7137C100.082 16.4343 100.318 15.1633 100.799 13.9775C101.28 12.7917 101.996 11.7155 102.904 10.8139C103.812 9.9122 104.894 9.20373 106.083 8.73115C107.272 8.25857 108.545 8.03165 109.825 8.06409C111.183 7.99824 112.541 8.22095 113.808 8.71756C115.074 9.21418 116.221 9.97343 117.173 10.9453L114.65 13.8948C114.021 13.2344 113.268 12.7046 112.434 12.336C111.601 11.9673 110.702 11.7671 109.79 11.7466C109.05 11.7659 108.321 11.9339 107.646 12.2407C106.972 12.5474 106.366 12.9867 105.865 13.5322C105.364 14.0778 104.978 14.7186 104.73 15.4164C104.481 16.1143 104.376 16.8549 104.419 17.5944C104.378 18.3361 104.486 19.0785 104.738 19.7775C104.989 20.4765 105.378 21.1179 105.883 21.6634C106.387 22.209 106.996 22.6476 107.673 22.9531C108.35 23.2587 109.082 23.425 109.825 23.4421C110.73 23.435 111.625 23.2439 112.454 22.8805C113.284 22.5171 114.031 21.9889 114.65 21.328L117.276 23.9536C116.346 25.0653 115.174 25.9503 113.85 26.5412C112.527 27.132 111.086 27.4132 109.637 27.3633C108.371 27.3798 107.114 27.1405 105.942 26.6599C104.771 26.1793 103.708 25.4672 102.818 24.5662C101.928 23.6652 101.229 22.5939 100.763 21.4165C100.297 20.239 100.073 18.9796 100.106 17.7137Z" fill="#404041"/>
<path d="M118.452 8.33687H122.544V15.7019H130.115V8.33687H134.207V26.9712H130.115V19.4868H122.544V26.9712H118.452V8.33687Z" fill="#404041"/>
<path d="M82.3384 26.9712H59.9678L71.1531 7.60376L82.3384 26.9712ZM66.3959 23.2546H75.8932L71.1531 15.02L66.3959 23.2546Z" fill="#404041"/>
<path d="M68.4932 31.1993H72.2784L81.0084 42.6561V31.1993H85.0495V49.8166H81.6393L72.5342 37.9677V49.8166H68.4932V31.1993Z" fill="#404041"/>
<path d="M86.584 31.1993H90.6762V39.3316L98.2297 31.1993H103.191L95.6039 39.0247L103.532 49.7484H98.6048L92.8246 41.8889L90.6762 44.1393V49.8336H86.584V31.1993Z" fill="#404041"/>
<path d="M104.419 31.1993H108.511V49.8166H104.419V31.1993Z" fill="#404041"/>
<path d="M109.722 31.1993H113.507L122.237 42.6561V31.1993H126.278V49.8166H122.868L113.831 37.9677V49.8166H109.722V31.1993Z" fill="#404041"/>
<path d="M127.25 40.5591C127.241 39.2799 127.488 38.0119 127.977 36.83C128.467 35.6481 129.188 34.5764 130.099 33.6783C131.01 32.7801 132.092 32.0738 133.281 31.6012C134.47 31.1285 135.741 30.8991 137.02 30.9265C139.697 30.7823 142.324 31.6944 144.335 33.4668L141.76 36.5867C141.108 35.9484 140.334 35.4475 139.485 35.1137C138.636 34.7798 137.728 34.6198 136.816 34.6431C135.338 34.7052 133.945 35.3499 132.942 36.4363C131.938 37.5226 131.406 38.9621 131.462 40.4397C131.417 41.2059 131.531 41.973 131.796 42.693C132.062 43.4131 132.473 44.0706 133.005 44.6243C133.536 45.1781 134.176 45.6162 134.885 45.9111C135.593 46.2061 136.355 46.3516 137.123 46.3386C138.491 46.3767 139.837 45.9895 140.976 45.2304V42.639H136.85V39.0247H144.932V47.1229C142.726 49.0325 139.904 50.0801 136.986 50.0723C135.711 50.1286 134.439 49.9227 133.247 49.4674C132.055 49.0121 130.969 48.3171 130.056 47.4254C129.144 46.5337 128.424 45.4642 127.941 44.2832C127.458 43.1021 127.223 41.8346 127.25 40.5591Z" fill="#404041"/>
<path d="M72.4998 58H39.1484L46.7531 44.8383H54.9034L57.4098 49.2028H49.2766L46.719 53.6185H64.9293L55.8241 37.8654L53.9826 41.0706H48.9526L55.8241 29.1023L72.4998 58Z" fill="#00A4CE"/>
<path d="M39.1484 0H72.4998L64.8952 13.1446H56.7449L54.2384 8.78013H62.3887L64.9293 4.36449H46.719L55.8241 20.1176L57.6656 16.9124H62.6956L55.8241 28.8807L39.1484 0Z" fill="#00A4CE"/>
<path d="M135.929 3.80188H134.224V2.91534H138.64V3.80188H136.935V8.33686H135.963L135.929 3.80188Z" fill="#404041"/>
<path d="M139.646 2.91534H140.652L142.358 5.48972L144.063 2.91534H145.086V8.33686H144.131V4.41564L142.426 6.99001L140.721 4.43269V8.33686H139.783L139.646 2.91534Z" fill="#404041"/>
</g>
<defs>
<clipPath id="clip0">
<rect width="145" height="58" fill="white"/>
</clipPath>
</defs>
</svg>
